TITLE ""
FILE "Step1_Track07.mp3" MP3
  TRACK 01 AUDIO
    TITLE "Step1_Track07_01"
    INDEX 01 00:00:00
  TRACK 02 AUDIO
    TITLE "Step1_Track07_02"
    INDEX 01 00:00:24
  TRACK 03 AUDIO
    TITLE "Step1_Track07_03"
    INDEX 01 00:01:57
  TRACK 04 AUDIO
    TITLE "Step1_Track07_04"
    INDEX 01 00:02:37
  TRACK 05 AUDIO
    TITLE "Step1_Track07_05"
    INDEX 01 00:03:30
  TRACK 06 AUDIO
    TITLE "Step1_Track07_06"
    INDEX 01 00:03:36
  TRACK 07 AUDIO
    TITLE "Step1_Track07_07"
    INDEX 01 00:05:35
  TRACK 08 AUDIO
    TITLE "Step1_Track07_08"
    INDEX 01 00:05:58
  TRACK 09 AUDIO
    TITLE "Step1_Track07_09"
    INDEX 01 00:06:48
  TRACK 10 AUDIO
    TITLE "Step1_Track07_10"
    INDEX 01 00:06:50
  TRACK 11 AUDIO
    TITLE "Step1_Track07_11"
    INDEX 01 00:09:07
  TRACK 12 AUDIO
    TITLE "Step1_Track07_12"
    INDEX 01 00:09:31
  TRACK 13 AUDIO
    TITLE "Step1_Track07_13"
    INDEX 01 00:10:26
  TRACK 14 AUDIO
    TITLE "Step1_Track07_14"
    INDEX 01 00:10:28
  TRACK 15 AUDIO
    TITLE "Step1_Track07_15"
    INDEX 01 00:12:39
  TRACK 16 AUDIO
    TITLE "Step1_Track07_16"
    INDEX 01 00:12:62
  TRACK 17 AUDIO
    TITLE "Step1_Track07_17"
    INDEX 01 00:13:62
  TRACK 18 AUDIO
    TITLE "Step1_Track07_18"
    INDEX 01 00:13:64
  TRACK 19 AUDIO
    TITLE "Step1_Track07_19"
    INDEX 01 00:16:60
  TRACK 20 AUDIO
    TITLE "Step1_Track07_20"
    INDEX 01 00:17:01
  TRACK 21 AUDIO
    TITLE "Step1_Track07_21"
    INDEX 01 00:18:08
  TRACK 22 AUDIO
    TITLE "Step1_Track07_22"
    INDEX 01 00:18:10
  TRACK 23 AUDIO
    TITLE "Step1_Track07_23"
    INDEX 01 00:19:66
  TRACK 24 AUDIO
    TITLE "Step1_Track07_24"
    INDEX 01 00:20:19
  TRACK 25 AUDIO
    TITLE "Step1_Track07_25"
    INDEX 01 00:21:16
  TRACK 26 AUDIO
    TITLE "Step1_Track07_26"
    INDEX 01 00:21:18
  TRACK 27 AUDIO
    TITLE "Step1_Track07_27"
    INDEX 01 00:22:57
  TRACK 28 AUDIO
    TITLE "Step1_Track07_28"
    INDEX 01 00:23:11
  TRACK 29 AUDIO
    TITLE "Step1_Track07_29"
    INDEX 01 00:24:11
  TRACK 30 AUDIO
    TITLE "Step1_Track07_30"
    INDEX 01 00:24:32
  TRACK 31 AUDIO
    TITLE "Step1_Track07_31"
    INDEX 01 00:26:66
  TRACK 32 AUDIO
    TITLE "Step1_Track07_32"
    INDEX 01 00:27:23
  TRACK 33 AUDIO
    TITLE "Step1_Track07_33"
    INDEX 01 00:28:14
  TRACK 34 AUDIO
    TITLE "Step1_Track07_34"
    INDEX 01 00:28:18
  TRACK 35 AUDIO
    TITLE "Step1_Track07_35"
    INDEX 01 00:30:60
  TRACK 36 AUDIO
    TITLE "Step1_Track07_36"
    INDEX 01 00:31:09
  TRACK 37 AUDIO
    TITLE "Step1_Track07_37"
    INDEX 01 00:32:12
  TRACK 38 AUDIO
    TITLE "Step1_Track07_38"
    INDEX 01 00:32:34
  TRACK 39 AUDIO
    TITLE "Step1_Track07_39"
    INDEX 01 00:35:36
  TRACK 40 AUDIO
    TITLE "Step1_Track07_40"
    INDEX 01 00:35:64
  TRACK 41 AUDIO
    TITLE "Step1_Track07_41"
    INDEX 01 00:36:57
  TRACK 42 AUDIO
    TITLE "Step1_Track07_42"
    INDEX 01 00:36:73
  TRACK 43 AUDIO
    TITLE "Step1_Track07_43"
    INDEX 01 00:40:04
